<svg xmlns="http://www.w3.org/2000/svg" xmlns:xlink="http://www.w3.org/1999/xlink" width="500" zoomAndPan="magnify" viewBox="0 0 375 374.999991" height="500" preserveAspectRatio="xMidYMid meet" version="1.2"><defs><clipPath id="f16c1dba8a"><path d="M 58.863281 11.3125 L 172.84375 11.3125 L 172.84375 259.578125 L 58.863281 259.578125 Z M 58.863281 11.3125 "/></clipPath><clipPath id="72ba6468f1"><path d="M 58.863281 11.3125 L 286.519531 11.3125 L 286.519531 141.402344 L 58.863281 141.402344 Z M 58.863281 11.3125 "/></clipPath><clipPath id="5534b24b54"><path d="M 184.554688 155.765625 L 286.519531 155.765625 L 286.519531 257.726562 L 184.554688 257.726562 Z M 184.554688 155.765625 "/></clipPath><clipPath id="d15f6c702f"><path d="M 235.535156 155.765625 C 207.378906 155.765625 184.554688 178.589844 184.554688 206.746094 C 184.554688 234.902344 207.378906 257.726562 235.535156 257.726562 C 263.691406 257.726562 286.519531 234.902344 286.519531 206.746094 C 286.519531 178.589844 263.691406 155.765625 235.535156 155.765625 Z M 235.535156 155.765625 "/></clipPath><clipPath id="cb0d185371"><path d="M 184.554688 268.703125 L 286.519531 268.703125 L 286.519531 370.667969 L 184.554688 370.667969 Z M 184.554688 268.703125 "/></clipPath><clipPath id="1457d8d0be"><path d="M 235.535156 268.703125 C 207.378906 268.703125 184.554688 291.527344 184.554688 319.683594 C 184.554688 347.839844 207.378906 370.667969 235.535156 370.667969 C 263.691406 370.667969 286.519531 347.839844 286.519531 319.683594 C 286.519531 291.527344 263.691406 268.703125 235.535156 268.703125 Z M 235.535156 268.703125 "/></clipPath><clipPath id="6a56d96250"><path d="M 64.871094 268.703125 L 166.835938 268.703125 L 166.835938 370.667969 L 64.871094 370.667969 Z M 64.871094 268.703125 "/></clipPath><clipPath id="4a9ddc346e"><path d="M 115.855469 268.703125 C 87.695312 268.703125 64.871094 291.527344 64.871094 319.683594 C 64.871094 347.839844 87.695312 370.667969 115.855469 370.667969 C 144.011719 370.667969 166.835938 347.839844 166.835938 319.683594 C 166.835938 291.527344 144.011719 268.703125 115.855469 268.703125 Z M 115.855469 268.703125 "/></clipPath></defs><g id="831c55b844"><g clip-rule="nonzero" clip-path="url(#f16c1dba8a)"><path style=" stroke:none;fill-rule:nonzero;fill:#1b3e54;fill-opacity:1;" d="M 58.863281 11.3125 L 172.84375 11.3125 L 172.84375 259.753906 L 58.863281 259.753906 Z M 58.863281 11.3125 "/></g><g clip-rule="nonzero" clip-path="url(#72ba6468f1)"><path style=" stroke:none;fill-rule:nonzero;fill:#1b3e54;fill-opacity:1;" d="M 58.863281 11.3125 L 286.519531 11.3125 L 286.519531 141.402344 L 58.863281 141.402344 Z M 58.863281 11.3125 "/></g><g clip-rule="nonzero" clip-path="url(#5534b24b54)"><g clip-rule="nonzero" clip-path="url(#d15f6c702f)"><path style=" stroke:none;fill-rule:nonzero;fill:#61b9ad;fill-opacity:1;" d="M 184.554688 155.765625 L 286.519531 155.765625 L 286.519531 257.726562 L 184.554688 257.726562 Z M 184.554688 155.765625 "/></g></g><g clip-rule="nonzero" clip-path="url(#cb0d185371)"><g clip-rule="nonzero" clip-path="url(#1457d8d0be)"><path style=" stroke:none;fill-rule:nonzero;fill:#61b9ad;fill-opacity:1;" d="M 184.554688 268.703125 L 286.519531 268.703125 L 286.519531 370.667969 L 184.554688 370.667969 Z M 184.554688 268.703125 "/></g></g><g clip-rule="nonzero" clip-path="url(#6a56d96250)"><g clip-rule="nonzero" clip-path="url(#4a9ddc346e)"><path style=" stroke:none;fill-rule:nonzero;fill:#61b9ad;fill-opacity:1;" d="M 64.871094 268.703125 L 166.835938 268.703125 L 166.835938 370.667969 L 64.871094 370.667969 Z M 64.871094 268.703125 "/></g></g></g></svg>